<?xml version="1.0" encoding="UTF-8" standalone="no"?>
<svg
   xmlns:ns5="http://www.iki.fi/pav/software/textext/"
   xmlns:dc="http://purl.org/dc/elements/1.1/"
   xmlns:cc="http://creativecommons.org/ns#"
   xmlns:rdf="http://www.w3.org/1999/02/22-rdf-syntax-ns#"
   xmlns:svg="http://www.w3.org/2000/svg"
   xmlns="http://www.w3.org/2000/svg"
   xmlns:sodipodi="http://sodipodi.sourceforge.net/DTD/sodipodi-0.dtd"
   xmlns:inkscape="http://www.inkscape.org/namespaces/inkscape"
   width="1752.9922"
   height="2250.6174"
   viewBox="0 0 135.1599 173.52801"
   version="1.1"
   id="svg84"
   sodipodi:docname="CGGT.svg"
   inkscape:version="1.0 (4035a4fb49, 2020-05-01)">
  <metadata
     id="metadata90">
    <rdf:RDF>
      <cc:Work
         rdf:about="">
        <dc:format>image/svg+xml</dc:format>
        <dc:type
           rdf:resource="http://purl.org/dc/dcmitype/StillImage" />
        <dc:title></dc:title>
      </cc:Work>
    </rdf:RDF>
  </metadata>
  <defs
     id="defs88">
    <g
       id="id-92da3988-c513-44c5-a7dc-a64be48cbd7f">
      <symbol
         id="id-42283143-eb59-4465-8914-24597d260ae8"
         overflow="visible">
        <path
           id="id-9ea2c9d7-6c62-4b9b-b95f-f027fb7b6d25"
           d=""
           style="stroke:none" />
      </symbol>
      <symbol
         id="id-80c84ef7-eef3-4934-9e15-10d639638a14"
         overflow="visible">
        <path
           id="id-5c4d4005-dcc3-4f7e-80ce-12e0a0ead4bf"
           d="M 3.265625,-7.09375 C 3.3125,-7.203125 3.3125,-7.234375 3.3125,-7.28125 c 0,-0.109375 -0.078125,-0.203125 -0.1875,-0.203125 -0.09375,0 -0.171875,0.0625 -0.234375,0.234375 l -1.75,4.578125 C 1.125,-2.609375 1.09375,-2.546875 1.09375,-2.5 c 0,0.03125 0,0.0625 0.046875,0.171875 L 2.890625,2.25 C 2.9375,2.359375 2.984375,2.5 3.125,2.5 c 0.109375,0 0.1875,-0.09375 0.1875,-0.203125 0,-0.03125 0,-0.046875 -0.046875,-0.15625 L 1.5,-2.5 Z m 0,0"
           style="stroke:none" />
      </symbol>
      <symbol
         id="id-fcb47f80-cd9a-4a57-a16e-7a90496eae00"
         overflow="visible">
        <path
           id="id-0381b8a4-27e9-470c-a3e4-a445e3aba3f1"
           d="m 1.578125,-7.125 c 0,-0.171875 0,-0.359375 -0.1875,-0.359375 -0.203125,0 -0.203125,0.1875 -0.203125,0.359375 v 9.265625 c 0,0.171875 0,0.359375 0.203125,0.359375 0.1875,0 0.1875,-0.1875 0.1875,-0.359375 z m 0,0"
           style="stroke:none" />
      </symbol>
      <symbol
         id="id-37ca9b78-6fe4-4c96-82c6-8f605f3f23ad"
         overflow="visible">
        <path
           id="id-b01ae5e6-532a-48c6-bc7e-7daaa4f3a418"
           d="M 2.71875,-2.328125 C 2.765625,-2.4375 2.765625,-2.46875 2.765625,-2.5 c 0,-0.015625 0,-0.046875 -0.046875,-0.15625 L 0.984375,-7.25 c -0.0625,-0.171875 -0.125,-0.234375 -0.234375,-0.234375 -0.109375,0 -0.203125,0.09375 -0.203125,0.203125 0,0.03125 0,0.046875 0.046875,0.15625 L 2.359375,-2.5 0.59375,2.109375 C 0.546875,2.21875 0.546875,2.25 0.546875,2.296875 0.546875,2.40625 0.640625,2.5 0.75,2.5 0.875,2.5 0.921875,2.390625 0.953125,2.296875 Z m 0,0"
           style="stroke:none" />
      </symbol>
      <symbol
         id="id-85c2cc0e-b963-469d-bbc8-456eb51c4d27"
         overflow="visible">
        <path
           id="id-34da6d81-aa62-4588-b720-0e9f357a6934"
           d=""
           style="stroke:none" />
      </symbol>
      <symbol
         id="id-e9c78c19-d03b-4ec3-a173-0d19f9b3f97a"
         overflow="visible">
        <path
           id="id-4560ae46-2abc-44a8-89af-61118e1691fd"
           d="M 4.828125,-4.09375 4,-6.078125 c -0.03125,-0.078125 -0.046875,-0.125 -0.046875,-0.125 0,-0.0625 0.15625,-0.25 0.578125,-0.296875 0.109375,-0.015625 0.203125,-0.015625 0.203125,-0.1875 0,-0.125 -0.125,-0.125 -0.15625,-0.125 -0.40625,0 -0.828125,0.03125 -1.25,0.03125 -0.25,0 -0.859375,-0.03125 -1.109375,-0.03125 -0.0625,0 -0.1875,0 -0.1875,0.203125 C 2.03125,-6.5 2.140625,-6.5 2.265625,-6.5 c 0.59375,0 0.65625,0.09375 0.75,0.3125 l 1.171875,2.78125 -2.109375,2.265625 -0.125,0.109375 C 1.46875,-0.5 1,-0.34375 0.484375,-0.3125 c -0.125,0.015625 -0.21875,0.015625 -0.21875,0.203125 0,0.015625 0,0.109375 0.140625,0.109375 0.296875,0 0.625,-0.03125 0.921875,-0.03125 C 1.703125,-0.03125 2.09375,0 2.453125,0 2.515625,0 2.625,0 2.625,-0.203125 2.625,-0.296875 2.53125,-0.3125 2.515625,-0.3125 c -0.09375,0 -0.40625,-0.03125 -0.40625,-0.3125 0,-0.15625 0.15625,-0.3125 0.265625,-0.4375 L 3.40625,-2.140625 4.296875,-3.125 l 1,2.390625 c 0.046875,0.109375 0.0625,0.109375 0.0625,0.140625 0,0.078125 -0.203125,0.25 -0.578125,0.28125 C 4.671875,-0.296875 4.578125,-0.296875 4.578125,-0.125 4.578125,0 4.6875,0 4.71875,0 5,0 5.703125,-0.03125 5.984375,-0.03125 6.234375,-0.03125 6.84375,0 7.09375,0 c 0.0625,0 0.1875,0 0.1875,-0.1875 0,-0.125 -0.109375,-0.125 -0.1875,-0.125 -0.65625,0 -0.6875,-0.03125 -0.859375,-0.4375 C 5.859375,-1.671875 5.1875,-3.234375 4.953125,-3.828125 5.625,-4.53125 6.671875,-5.71875 7,-5.984375 7.28125,-6.234375 7.671875,-6.46875 8.265625,-6.5 c 0.125,-0.015625 0.21875,-0.015625 0.21875,-0.203125 0,0 0,-0.109375 -0.125,-0.109375 -0.296875,0 -0.640625,0.03125 -0.9375,0.03125 -0.375,0 -0.75,-0.03125 -1.109375,-0.03125 -0.0625,0 -0.1875,0 -0.1875,0.203125 0,0.0625 0.046875,0.09375 0.109375,0.109375 0.09375,0.015625 0.40625,0.03125 0.40625,0.3125 0,0.140625 -0.109375,0.265625 -0.1875,0.359375 z m 0,0"
           style="stroke:none" />
      </symbol>
      <symbol
         id="id-9b9d7416-37f3-4f2f-9134-cc91980837d8"
         overflow="visible">
        <path
           id="id-93fb3109-7252-4568-9a46-490272512539"
           d="m 3.734375,-6.125 c 0.0625,-0.234375 0.09375,-0.328125 0.28125,-0.359375 C 4.109375,-6.5 4.421875,-6.5 4.625,-6.5 c 0.703125,0 1.8125,0 1.8125,0.984375 0,0.34375 -0.15625,1.03125 -0.546875,1.421875 -0.265625,0.25 -0.78125,0.578125 -1.6875,0.578125 H 3.09375 Z m 1.4375,2.734375 c 1.015625,-0.21875 2.1875,-0.921875 2.1875,-1.921875 0,-0.859375 -0.890625,-1.5 -2.203125,-1.5 H 2.328125 c -0.203125,0 -0.296875,0 -0.296875,0.203125 C 2.03125,-6.5 2.125,-6.5 2.3125,-6.5 c 0.015625,0 0.203125,0 0.375,0.015625 0.1875,0.03125 0.265625,0.03125 0.265625,0.171875 0,0.03125 0,0.0625 -0.03125,0.1875 l -1.34375,5.34375 C 1.484375,-0.390625 1.46875,-0.3125 0.671875,-0.3125 0.5,-0.3125 0.40625,-0.3125 0.40625,-0.109375 0.40625,0 0.53125,0 0.546875,0 c 0.28125,0 0.984375,-0.03125 1.25,-0.03125 0.28125,0 1,0.03125 1.28125,0.03125 0.078125,0 0.1875,0 0.1875,-0.203125 0,-0.109375 -0.078125,-0.109375 -0.28125,-0.109375 -0.359375,0 -0.640625,0 -0.640625,-0.171875 0,-0.0625 0.015625,-0.109375 0.03125,-0.171875 l 0.65625,-2.640625 h 1.1875 c 0.90625,0 1.078125,0.5625 1.078125,0.90625 0,0.140625 -0.078125,0.453125 -0.140625,0.6875 C 5.09375,-1.421875 5,-1.0625 5,-0.859375 5,0.21875 6.203125,0.21875 6.328125,0.21875 c 0.84375,0 1.203125,-1 1.203125,-1.140625 0,-0.125 -0.109375,-0.125 -0.125,-0.125 -0.09375,0 -0.109375,0.0625 -0.125,0.140625 C 7.03125,-0.171875 6.59375,0 6.375,0 6.046875,0 5.96875,-0.21875 5.96875,-0.609375 c 0,-0.3125 0.0625,-0.8125 0.109375,-1.140625 0.015625,-0.140625 0.03125,-0.328125 0.03125,-0.46875 0,-0.765625 -0.671875,-1.078125 -0.9375,-1.171875 z m 0,0"
           style="stroke:none" />
      </symbol>
    </g>
  </defs>
  <sodipodi:namedview
     inkscape:document-rotation="0"
     pagecolor="#ffffff"
     bordercolor="#666666"
     borderopacity="1"
     objecttolerance="10"
     gridtolerance="10"
     guidetolerance="10"
     inkscape:pageopacity="0"
     inkscape:pageshadow="2"
     inkscape:window-width="1920"
     inkscape:window-height="1024"
     id="namedview86"
     showgrid="false"
     inkscape:zoom="0.34386351"
     inkscape:cx="804.75818"
     inkscape:cy="868.66663"
     inkscape:window-x="0"
     inkscape:window-y="28"
     inkscape:window-maximized="1"
     inkscape:current-layer="svg84"
     inkscape:snap-global="false"
     fit-margin-top="0"
     fit-margin-left="0"
     fit-margin-right="0"
     fit-margin-bottom="0" />
  <path
     d="m 135.13998,0 v 78.15 c 0,0 3.086,73.744 -67.560005,95.378 C -3.069025,151.893 0.01997496,78.15 0.01997496,78.15 V 0 Z"
     fill-rule="evenodd"
     clip-rule="evenodd"
     id="path4" />
  <path
     d="m 131.75898,3.088 v 75.493 c 0,0 0.617,14.858 -5.268,32.901 l -58.911005,-49.884 -58.915,49.883 c -5.887,-18.043 -5.267,-32.901 -5.267,-32.901 V 3.088 Z"
     fill-rule="evenodd"
     clip-rule="evenodd"
     fill="#cf4044"
     id="path6"
     style="fill:#ffff00" />
  <path
     d="m 67.579975,169.187 c -34.511,-10.562 -50.494,-34.219 -57.885,-54.701 l 57.885,-48.922 57.882005,48.922 c -7.391,20.482 -23.373,44.138 -57.882005,54.701 z"
     fill-rule="evenodd"
     clip-rule="evenodd"
     fill="#ffffff"
     id="path8" />
  <path
     d="m 39.871975,30.428 c 0.776,1.931 4.846,-0.851 6.14,-1.132 1.299,-0.28 3.208,0.281 4.705,0.281 1.506,0 1.413,-0.066 2.367,-0.058 0.945,0.011 1.471,-2.206 0.208,-2.17 -1.253,0.047 -2.911,0.066 -2.911,0.066 0,0 1.28,0.121 2.911,-0.066 1.638,-0.179 1.795,-2.648 -0.433,-2.219 -2.225,0.432 -2.489,0.237 -2.489,0.237 0,0 0.937,0.402 2.489,-0.237 1.564,-0.645 0.608,-2.15 -0.776,-1.935 -1.393,0.226 -5.669,1.61 -6.511,1.825 -0.833,0.215 -3.304,0.598 -3.736,1.385 -0.431,0.777 -2.752,2.096 -1.964,4.023 z m 55.414005,0 c -0.777,1.931 -4.838,-0.851 -6.139,-1.132 -1.301,-0.28 -3.209,0.281 -4.707,0.281 -1.506,0 -1.412,-0.066 -2.367,-0.058 -0.945,0.011 -1.469,-2.206 -0.207,-2.17 1.256,0.047 2.914,0.066 2.914,0.066 0,0 -1.283,0.121 -2.914,-0.066 -1.627,-0.179 -1.795,-2.648 0.432,-2.219 2.225,0.432 2.488,0.237 2.488,0.237 0,0 -0.936,0.402 -2.488,-0.237 -1.562,-0.645 -0.607,-2.15 0.777,-1.935 1.393,0.226 5.68,1.61 6.51,1.825 0.836,0.215 3.305,0.598 3.734,1.385 0.432,0.777 2.754,2.096 1.967,4.023 z"
     fill-rule="evenodd"
     clip-rule="evenodd"
     fill="#ffffff"
     stroke="#000000"
     stroke-width="0.78"
     stroke-miterlimit="2.613"
     id="path34" />
  <path
     d="m 70.66698,57.94 c 0,1.104 -1.385,1.767 -3.087005,1.767 -1.705,0 -2.875,-0.449 -2.875,-1.767 h -17.303 V 56.508 H 87.73098 v 1.432 z"
     fill-rule="evenodd"
     clip-rule="evenodd"
     id="path36" />
  <path
     d="m 70.66698,56.509 c 0,1.104 -1.385,1.756 -3.087005,1.756 -1.705,0 -2.875,-0.438 -2.875,-1.756 h -16.993 V 24.599 H 87.44398 v 31.909 h -16.777 z"
     fill-rule="evenodd"
     clip-rule="evenodd"
     fill="#ffffff"
     stroke="#000000"
     stroke-width="0.78"
     stroke-linejoin="round"
     stroke-miterlimit="2.613"
     id="path38" />
  <path
     d="m 64.704975,55.507 2.875,-1.209 3.087005,1.209 c 0,0 -0.215,1.359 -3.087005,1.359 -2.875,0 -2.875,-1.359 -2.875,-1.359 z"
     fill-rule="evenodd"
     clip-rule="evenodd"
     fill="#ffffff"
     stroke="#000000"
     stroke-width="0.78"
     stroke-linecap="square"
     stroke-linejoin="bevel"
     stroke-miterlimit="2.613"
     id="path40" />
  <path
     fill-rule="evenodd"
     clip-rule="evenodd"
     d="m 64.704975,55.507 2.875,-3.53 3.087005,3.53 -3.087005,-1.209 z"
     id="path42" />
  <path
     d="m 67.579975,51.977 c 0,0 1.327,-3.751 7.065005,-0.992 3.18,1.525 7.174,0.992 7.174,0.992 V 23.72 c 0,0 -3.994,0.532 -7.174,-0.993 -5.738005,-2.759 -7.065005,0.993 -7.065005,0.993 z m -14.355,-28.257 v 28.257 c 0,0 3.312,0.955 7.291,-0.992 5.63,-2.759 7.064,0.992 7.064,0.992 V 23.72 c 0,0 -1.435,-3.752 -7.064,-0.993 -3.979,1.947 -7.291,0.993 -7.291,0.993 z"
     fill-rule="evenodd"
     clip-rule="evenodd"
     fill="#fff"
     stroke="#000000"
     stroke-width="0.78"
     stroke-linejoin="bevel"
     stroke-miterlimit="2.613"
     id="path44"
     style="fill:#ffffff" />
  <path
     fill-rule="evenodd"
     clip-rule="evenodd"
     fill="#949698"
     stroke="#000000"
     stroke-width="0.78"
     stroke-linejoin="bevel"
     stroke-miterlimit="2.613"
     d="m 81.81898,51.977 3.643,3.147 V 27.361 l -3.643,-3.641 z"
     id="path46" />
  <path
     fill-rule="evenodd"
     clip-rule="evenodd"
     fill="#949698"
     stroke="#000000"
     stroke-width="0.78"
     stroke-linecap="square"
     stroke-linejoin="bevel"
     stroke-miterlimit="2.613"
     d="m 53.224975,23.72 -3.53,3.641 v 27.878 l 3.53,-3.262 z"
     id="path48" />
  <path
     d="m 64.704975,55.124 h -15.01 l 3.53,-3.146 c 0,0 3.312,0.955 7.291,-0.992 5.63,-2.759 7.064,0.992 7.064,0.992 l -2.875,3.529 z m 2.875,-3.147 c 0,0 1.327,-3.751 7.065005,-0.992 3.18,1.525 7.174,0.992 7.174,0.992 l 3.643,3.146 h -14.795 z"
     fill-rule="evenodd"
     clip-rule="evenodd"
     fill="#ffffff"
     stroke="#000000"
     stroke-width="0.78"
     stroke-linecap="square"
     stroke-linejoin="bevel"
     stroke-miterlimit="2.613"
     id="path50" />
  <path
     d="m 90.02598,63.87 c -0.693,-1.094 -0.496,-1.683 0,-2.189 0.496,-0.496 4.475,-2.375 7.553,-2.48 3.078,-0.102 0.299,-1.685 0.689,-2.087 0.402,-0.391 5.963,0.199 7.057,0.798 1.096,0.597 1.592,1.889 -0.494,3.18 -2.088,1.292 -1.199,0 -1.693,0.991 -0.498,0.995 -1.592,0.693 -3.277,1.096 -0.775,0.177 -4.969,3.171 -5.359,3.574 -0.402,0.394 -3.83,-1.03 -2.088,-2.188 0,0 0.805,-0.75 2.088,-1.385 0,0 -3.184,2.973 -3.979,1.787 -0.793,-1.198 -0.6,-1.589 1.592,-2.883 z"
     fill-rule="evenodd"
     clip-rule="evenodd"
     fill="#ffffff"
     stroke="#000000"
     stroke-width="0.78"
     stroke-miterlimit="2.613"
     id="path54" />
  <path
     d="m 91.71198,66.062 c 0,0 0.645,-0.703 1.197,-0.703 0.543,0 0.99,0.449 0.99,0.991 0,0.551 -2.086,1.694 -2.086,1.694 -0.55,0 -0.101,-1.982 -0.101,-1.982 z m -3.172,-2.883 c 0,0 0.637,-0.702 1.189,-0.702 0.551,0 0.99,0.449 0.99,1.002 0,0.542 -2.086,1.682 -2.086,1.682 -0.542,0 -0.093,-1.982 -0.093,-1.982 z m 0.99,1.787 c 0,0 0.648,-0.694 1.189,-0.694 0.551,0 0.992,0.44 0.992,0.993 0,0.543 -2.086,1.683 -2.086,1.683 -0.542,0 -0.095,-1.982 -0.095,-1.982 z m 18.229,-6.354 c 0,0 -0.553,2.095 -2.535,0.553 0,0 -0.992,2.536 -2.434,0.55 0,0 -1.76,1.986 -2.648,-0.55 0,0 -2.424,1.104 -1.982,-1.544 0,0 -2.873,0.112 -1.656,-2.321 0,0 -2.65,-0.441 -0.777,-2.423 0,0 -2.648,-0.889 -0.328,-2.871 0,0 -2.273,-1.572 0.551,-2.988 0,0 -1.992,-1.318 1.873,-3.085 z m -10.703,11.483 c -0.779,-1.217 -0.553,-1.883 0,-2.434 0.551,-0.551 4.965,-2.649 8.383,-2.75 3.426,-0.113 0.336,-1.884 0.777,-2.321 0.439,-0.44 6.623,0.215 7.84,0.879 1.207,0.666 1.76,2.095 -0.551,3.538 -2.32,1.431 -1.328,0 -1.883,1.104 -0.551,1.104 -1.768,0.768 -3.639,1.206 -0.871,0.206 -5.52,3.538 -5.963,3.978 -0.439,0.438 -4.246,-1.143 -2.316,-2.422 0,0 0.898,-0.843 2.316,-1.556 0,0 -3.533,3.314 -4.414,1.993 -0.887,-1.327 -0.666,-1.768 1.768,-3.199 z"
     fill-rule="evenodd"
     clip-rule="evenodd"
     fill="#ffffff"
     stroke="#000000"
     stroke-width="0.78"
     stroke-miterlimit="2.613"
     id="path56" />
  <path
     d="m 98.92498,72.526 c 0,0 0.723,-0.776 1.33,-0.776 0.607,0 1.104,0.496 1.104,1.104 0,0.609 -2.32,1.872 -2.32,1.872 -0.608,0 -0.114,-2.2 -0.114,-2.2 z m -3.528,-3.21 c 0,0 0.713,-0.766 1.322,-0.766 0.617,0 1.102,0.496 1.102,1.105 0,0.607 -2.311,1.872 -2.311,1.872 -0.619,0 -0.113,-2.211 -0.113,-2.211 z m 1.106,1.993 c 0,0 0.709,-0.776 1.318,-0.776 0.619,0 1.104,0.495 1.104,1.104 0,0.608 -2.311,1.88 -2.311,1.88 -0.615,0 -0.111,-2.208 -0.111,-2.208 z m -0.664,-37.754 c 1.102,1.767 -3.527,3.422 -4.529,4.303 -0.994,0.889 -1.658,2.759 -2.535,3.977 -0.881,1.216 -0.881,1.106 -1.432,1.883 -0.555,0.765 -2.65,-0.113 -1.881,-1.104 0.777,-1.002 1.768,-2.321 1.768,-2.321 0,0 -0.664,1.101 -1.768,2.321 -1.104,1.206 -3.203,-0.113 -1.545,-1.657 1.654,-1.553 1.654,-1.88 1.654,-1.88 0,0 -0.223,0.991 -1.654,1.88 -1.432,0.879 -2.098,-0.777 -1.104,-1.768 0.99,-0.991 4.631,-3.643 5.295,-4.205 0.666,-0.542 2.432,-2.309 3.311,-2.197 0.892,0.102 3.316,-1.002 4.42,0.768 z"
     fill-rule="evenodd"
     clip-rule="evenodd"
     fill="#ffffff"
     stroke="#000000"
     stroke-width="0.78"
     stroke-miterlimit="2.613"
     id="path58" />
  <path
     d="m 85.34798,43.585 c 0.289,-0.43 0.881,-0.545 1.311,-0.253 0.43,0.292 0.543,0.87 0.25,1.302 -0.287,0.431 -1.842,0.953 -1.842,0.953 -0.429,-0.289 0,-1.573 0.281,-2.002 z m -2.312,-1.217 a 0.946,0.946 0 0 1 1.303,-0.253 c 0.43,0.292 0.541,0.881 0.25,1.311 -0.289,0.421 -1.842,0.955 -1.842,0.955 -0.43,-0.289 0,-1.583 0.289,-2.013 z m -1.104,-1.872 a 0.931,0.931 0 0 1 1.299,-0.25 c 0.432,0.288 0.545,0.87 0.256,1.299 -0.291,0.429 -1.844,0.955 -1.844,0.955 -0.429,-0.292 0,-1.572 0.289,-2.004 z m 16.891,-27.799 c 0.617,-0.6 1.639,-0.544 2.207,0.103 0.766,0.9 -2.105,2.208 -2.105,2.208 0.227,2.098 -1.318,2.433 -1.318,2.433 -0.438,1.545 -1.994,1.545 -1.994,1.545 -0.551,1.213 -2.096,0.663 -2.096,0.663 -2.098,1.319 -2.207,-0.227 -2.207,-0.227 -1.545,0.245 -1.984,-1.431 -1.984,-1.431 -1.432,-0.223 -1.104,-1.993 -1.104,-1.993 -1.881,0 -1.105,-2.648 -1.105,-2.648 -2.096,-3.527 0.721,-2.908 3.641,-3.637 3.537,-0.881 4.268,-1.46 7.512,0 l 2.213,1.768 c 0,0 1.664,1.946 2.309,3.417 2.48,3.75 1.217,5.192 5.633,10.049 4.416,4.856 1.656,3.753 3.312,8.279 1.658,4.521 3.424,7.067 4.746,8.386 1.328,1.33 6.184,9.823 5.408,16.891 -0.77,7.062 -0.881,10.049 2.871,16.888 3.752,6.85 6.082,6.682 3.752,12.584 -1.432,3.641 -1.656,-4.078 -1.656,-4.078 0,0 -1.768,9.929 -1.543,-1.442 0,0 -3.424,9.059 -1.432,-2.095 0,0 -4.088,9.712 -1.555,-1.218 0,0 -4.518,7.842 -0.992,-2.312 0,0 -4.529,6.066 -0.99,-2.656 0,0 -3.539,3.866 -1.105,-2.423 0,0 -2.986,3.086 -1.543,-1.985 0,0 -2.434,1.658 -1.545,-1.655 0,0 -2.318,0.882 -1.768,-1.657 0.551,-2.544 -1.104,-1.768 0.99,-2.984 2.1,-1.214 2.107,0.179 2.537,-1.982 0,0 -0.992,2.759 -2.201,0.768 0,0 -0.551,2.103 -2.543,0.551 0,0 -0.99,2.543 -2.424,0.551 0,0 -1.766,1.993 -2.646,-0.551 0,0 -2.436,1.104 -1.994,-1.544 0,0 -2.871,0.112 -1.658,-2.321 0,0 -2.648,-0.438 -0.766,-2.423 0,0 -2.648,-0.881 -0.334,-2.871 0,0 -2.275,-1.564 0.549,-2.977 0,0 -1.984,-1.33 1.881,-3.098 0,0 -1.861,-0.963 2.098,-2.862 2.76,-1.33 1.543,-3.979 1.543,-3.979 0,0 0,4.053 -4.078,5.41 0,0 1.432,2.095 -2.324,2.646 l 0.113,1.771 c 0,1.384 -1.545,1.318 -0.223,3.089 -0.32,-0.058 -0.486,1.373 -0.666,1.327 -0.805,-0.235 -1.432,1.657 -1.869,-2.434 -2.322,1.88 -1.713,-2.751 -1.658,-3.965 0,0 -2.762,1.982 -0.664,-3.865 0,0 -3.463,3.105 -1.217,-3.651 0,0 -2.648,2.875 -0.881,-1.654 1.77,-4.521 0.9,3.367 3.756,-0.994 2.092,-3.199 0.438,-2.096 1.982,-4.416 1.545,-2.31 2.32,2.153 2.758,-0.878 0.555,-3.752 1.443,-1.431 1.547,-3.199 0.111,-1.771 -2.537,4.854 -2.646,3.085 -0.113,-1.766 -2.426,0.555 -3.203,2.873 -0.768,2.324 -3.594,5.09 -1.982,1.873 0,0 -2.93,1.966 -1.883,-0.656 0,0 -2.977,1.319 -1.982,-1.44 0,0 -2.434,0.441 -1.33,-1.872 0,0 -2.535,0.441 -0.215,-2.095 2.312,-2.548 2.451,0.971 2.209,-1.881 -0.223,-2.536 1.656,-2.761 2.648,-3.529 0.99,-0.777 1.873,-0.337 2.977,-2.759 0,0 -0.215,2.31 -2.977,2.759 -2.76,0.439 -2.984,3.752 -3.65,1.657 -0.656,-2.106 -0.57,0.262 0.447,-1.768 0,0 -2.543,-0.338 -0.223,-2.32 0,0 -2.094,-0.441 0.34,-2.649 2.42,-2.208 -2.406,-0.89 1.092,-1.33 1.771,-0.214 1.217,-1.544 2.322,-2.208 1.104,-0.656 1.104,-1.658 1.654,-2.423 0.553,-0.777 2.098,-1.545 1.441,-2.434 -0.664,-0.881 -1.6,-0.725 -2.209,-0.105 z"
     fill-rule="evenodd"
     clip-rule="evenodd"
     fill="#ffffff"
     stroke="#000000"
     stroke-width="0.78"
     stroke-miterlimit="2.613"
     id="path60" />
  <path
     d="m 90.75698,12.248 c -0.086,0.909 1.422,-0.085 2.32,-0.214 1.002,-0.16 3.436,-0.074 2.535,-0.554 -0.232,-0.13 -0.654,-0.226 -0.654,-0.226 0.215,-1.217 -2.545,-1.432 -2.76,0 0,0.001 -1.377,0.32 -1.441,0.994 z"
     fill-rule="evenodd"
     clip-rule="evenodd"
     fill="#575759"
     id="path62" />
  <path
     d="m 92.41298,12.028 a 1.3230004,1.3230004 0 1 1 2.646,-0.002 1.3230004,1.3230004 0 0 1 -2.646,0.002 z"
     fill-rule="evenodd"
     clip-rule="evenodd"
     id="path64" />
  <path
     fill-rule="evenodd"
     clip-rule="evenodd"
     fill="#ffffff"
     d="m 93.63198,11.255 h 0.775 v 0.776 h -0.775 z"
     id="path66" />
  <path
     d="m 45.129975,63.87 c 0.702,-1.094 0.496,-1.683 0,-2.189 -0.496,-0.496 -4.462,-2.375 -7.551,-2.48 -3.078,-0.102 -0.297,-1.685 -0.692,-2.087 -0.393,-0.391 -5.96,0.199 -7.056,0.798 -1.092,0.597 -1.591,1.889 0.496,3.18 2.087,1.292 1.198,0 1.696,0.991 0.496,0.995 1.588,0.693 3.273,1.096 0.784,0.177 4.97,3.171 5.372,3.574 0.393,0.394 3.815,-1.03 2.079,-2.188 0,0 -0.807,-0.75 -2.079,-1.385 0,0 3.171,2.973 3.967,1.787 0.797,-1.198 0.598,-1.589 -1.591,-2.883 z"
     fill-rule="evenodd"
     clip-rule="evenodd"
     fill="#ffffff"
     stroke="#000000"
     stroke-width="0.78"
     stroke-miterlimit="2.613"
     id="path68" />
  <path
     d="m 43.444975,66.062 c 0,0 -0.644,-0.703 -1.197,-0.703 a 0.998,0.998 0 0 0 -0.991,0.991 c 0,0.551 2.087,1.694 2.087,1.694 0.553,0 0.101,-1.982 0.101,-1.982 z m 3.172,-2.883 c 0,0 -0.636,-0.702 -1.186,-0.702 a 0.993,0.993 0 0 0 -0.992,1.002 c 0,0.542 2.083,1.682 2.083,1.682 0.555,0 0.095,-1.982 0.095,-1.982 z m -0.991,1.787 c 0,0 -0.636,-0.694 -1.186,-0.694 a 0.988,0.988 0 0 0 -0.995,0.993 c 0,0.543 2.087,1.683 2.087,1.683 0.543,0 0.094,-1.982 0.094,-1.982 z m -18.228,-6.354 c 0,0 0.553,2.095 2.535,0.553 0,0 0.994,2.536 2.434,0.55 0,0 1.771,1.986 2.648,-0.55 0,0 2.423,1.104 1.985,-1.544 0,0 2.872,0.112 1.655,-2.321 0,0 2.648,-0.441 0.776,-2.423 0,0 2.648,-0.889 0.327,-2.871 0,0 2.274,-1.572 -0.551,-2.988 0,0 1.993,-1.318 -1.872,-3.085 z m 10.706,11.483 c 0.776,-1.217 0.551,-1.883 0,-2.434 -0.553,-0.551 -4.969,-2.649 -8.386,-2.75 -3.422,-0.113 -0.336,-1.884 -0.776,-2.321 -0.438,-0.44 -6.625,0.215 -7.841,0.879 -1.206,0.666 -1.759,2.095 0.562,3.538 2.312,1.431 1.318,0 1.872,1.104 0.551,1.104 1.768,0.768 3.64,1.206 0.871,0.206 5.52,3.538 5.961,3.978 0.449,0.438 4.259,-1.143 2.321,-2.422 0,0 -0.89,-0.843 -2.321,-1.556 0,0 3.535,3.314 4.416,1.993 0.889,-1.327 0.664,-1.768 -1.759,-3.199 z"
     fill-rule="evenodd"
     clip-rule="evenodd"
     fill="#ffffff"
     stroke="#000000"
     stroke-width="0.78"
     stroke-miterlimit="2.613"
     id="path70" />
  <path
     d="m 36.231975,72.526 c 0,0 -0.721,-0.776 -1.329,-0.776 -0.609,0 -1.103,0.496 -1.103,1.104 0,0.609 2.318,1.872 2.318,1.872 0.61,0 0.114,-2.2 0.114,-2.2 z m 3.527,-3.21 c 0,0 -0.711,-0.766 -1.319,-0.766 a 1.1,1.1 0 0 0 -1.104,1.105 c 0,0.607 2.312,1.872 2.312,1.872 0.618,0 0.111,-2.211 0.111,-2.211 z m -1.103,1.993 c 0,0 -0.711,-0.776 -1.319,-0.776 -0.608,0 -1.104,0.495 -1.104,1.104 0,0.608 2.31,1.88 2.31,1.88 0.619,0 0.113,-2.208 0.113,-2.208 z m 0.225,-37.754 c -1.104,1.767 3.527,3.422 4.518,4.303 1.002,0.889 1.657,2.759 2.547,3.977 0.877,1.216 0.877,1.106 1.431,1.883 0.551,0.765 2.646,-0.113 1.88,-1.104 -0.775,-1.002 -1.767,-2.321 -1.767,-2.321 0,0 0.663,1.101 1.767,2.321 1.104,1.206 3.2,-0.113 1.545,-1.657 -1.657,-1.553 -1.657,-1.88 -1.657,-1.88 0,0 0.224,0.991 1.657,1.88 1.432,0.879 2.095,-0.777 1.104,-1.768 -0.991,-0.991 -4.642,-3.643 -5.297,-4.205 -0.663,-0.542 -2.434,-2.309 -3.312,-2.197 -0.889,0.102 -3.312,-1.002 -4.416,0.768 z"
     fill-rule="evenodd"
     clip-rule="evenodd"
     fill="#ffffff"
     stroke="#000000"
     stroke-width="0.78"
     stroke-miterlimit="2.613"
     id="path72" />
  <path
     d="m 49.359975,43.585 c -0.289,-0.43 -0.871,-0.545 -1.3,-0.253 -0.429,0.292 -0.542,0.87 -0.253,1.302 0.29,0.431 1.845,0.953 1.845,0.953 0.428,-0.289 0,-1.573 -0.292,-2.002 z m 2.321,-1.217 a 0.943,0.943 0 0 0 -1.3,-0.253 0.949,0.949 0 0 0 -0.253,1.311 c 0.29,0.421 1.845,0.955 1.845,0.955 0.429,-0.289 0,-1.583 -0.292,-2.013 z m 1.106,-1.872 a 0.936,0.936 0 0 0 -1.303,-0.25 0.932,0.932 0 0 0 -0.253,1.299 c 0.289,0.429 1.842,0.955 1.842,0.955 0.432,-0.292 10e-4,-1.572 -0.286,-2.004 z m -16.442,-27.799 c -0.639,-0.589 -1.665,-0.562 -2.208,0.103 -0.768,0.919 2.095,2.208 2.095,2.208 -0.223,2.098 1.319,2.433 1.319,2.433 0.44,1.545 1.993,1.545 1.993,1.545 0.555,1.213 2.096,0.663 2.096,0.663 2.098,1.319 2.208,-0.227 2.208,-0.227 1.545,0.245 1.985,-1.431 1.985,-1.431 1.432,-0.223 1.104,-1.993 1.104,-1.993 1.88,0 1.104,-2.648 1.104,-2.648 2.098,-3.527 -0.721,-2.908 -3.64,-3.637 -3.538,-0.881 -4.268,-1.46 -7.514,0 l -2.199,1.768 c 0,0 -1.673,1.946 -2.321,3.417 -2.478,3.75 -1.214,5.192 -5.633,10.049 -4.417,4.856 -1.656,3.753 -3.312,8.279 -1.658,4.521 -3.415,7.067 -4.744,8.386 -1.331,1.33 -6.187,9.823 -5.41,16.891 0.769,7.062 0.882,10.049 -2.871,16.888 -3.753,6.85 -6.073,6.682 -3.753,12.584 1.432,3.641 1.657,-4.078 1.657,-4.078 0,0 1.768,9.929 1.545,-1.442 0,0 3.422,9.059 1.439,-2.095 0,0 4.08,9.712 1.544,-1.218 0,0 4.518,7.842 0.991,-2.312 0,0 4.531,6.066 0.992,-2.656 0,0 3.539,3.866 1.104,-2.423 0,0 2.984,3.086 1.544,-1.985 0,0 2.434,1.658 1.544,-1.655 0,0 2.321,0.882 1.768,-1.657 -0.551,-2.544 1.104,-1.768 -0.991,-2.984 -2.095,-1.214 -2.104,0.179 -2.536,-1.982 0,0 0.991,2.759 2.208,0.768 0,0 0.553,2.103 2.536,0.551 0,0 0.991,2.543 2.423,0.551 0,0 1.77,1.993 2.656,-0.551 0,0 2.426,1.104 1.985,-1.544 0,0 2.875,0.112 1.654,-2.321 0,0 2.649,-0.438 0.771,-2.423 0,0 2.657,-0.881 0.335,-2.871 0,0 2.274,-1.564 -0.552,-2.977 0,0 1.984,-1.33 -1.881,-3.098 0,0 1.872,-0.963 -2.095,-2.862 -2.762,-1.33 -1.545,-3.979 -1.545,-3.979 0,0 0,4.053 4.081,5.41 0,0 -1.432,2.095 2.321,2.646 l -0.113,1.771 c 0,1.384 1.553,1.318 0.223,3.089 0.319,-0.058 0.487,1.373 0.666,1.327 0.804,-0.235 1.432,1.657 1.872,-2.434 2.318,1.88 1.71,-2.751 1.655,-3.965 0,0 2.761,1.982 0.663,-3.865 0,0 3.463,3.105 1.217,-3.651 0,0 2.649,2.875 0.881,-1.654 -1.77,-4.521 -0.9,3.367 -3.752,-0.994 -2.098,-3.199 -0.44,-2.096 -1.985,-4.416 -1.542,-2.31 -2.311,2.153 -2.762,-0.878 -0.551,-3.752 -1.439,-1.431 -1.542,-3.199 -0.112,-1.771 2.536,4.854 2.648,3.085 0.114,-1.766 2.423,0.555 3.2,2.873 0.776,2.324 3.593,5.09 1.985,1.873 0,0 2.927,1.966 1.88,-0.656 0,0 2.977,1.319 1.982,-1.44 0,0 2.435,0.441 1.33,-1.872 0,0 2.536,0.441 0.215,-2.095 -2.309,-2.548 -2.45,0.971 -2.208,-1.881 0.226,-2.536 -1.658,-2.761 -2.648,-3.529 -0.992,-0.777 -1.873,-0.337 -2.976,-2.759 0,0 0.217,2.31 2.976,2.759 2.762,0.439 2.984,3.752 3.65,1.657 0.656,-2.106 0.569,0.262 -0.451,-1.768 0,0 2.547,-0.338 0.226,-2.32 0,0 2.096,-0.441 -0.328,-2.649 -2.433,-2.208 2.395,-0.89 -1.104,-1.33 -1.767,-0.214 -1.216,-1.544 -2.32,-2.208 -1.105,-0.656 -1.105,-1.658 -1.656,-2.423 -0.553,-0.777 -2.097,-1.545 -1.431,-2.434 0.657,-0.881 1.583,-0.705 2.21,-0.105 z"
     fill-rule="evenodd"
     clip-rule="evenodd"
     fill="#ffffff"
     stroke="#000000"
     stroke-width="0.78"
     stroke-miterlimit="2.613"
     id="path74" />
  <path
     d="m 44.400975,12.248 c 0.083,0.909 -1.423,-0.077 -2.32,-0.214 -1.003,-0.16 -3.434,-0.074 -2.537,-0.554 0.235,-0.13 0.656,-0.226 0.656,-0.226 -0.215,-1.217 2.547,-1.432 2.761,0 0,0.001 1.374,0.32 1.44,0.994 z"
     fill-rule="evenodd"
     clip-rule="evenodd"
     fill="#575759"
     id="path76" />
  <path
     d="m 40.097975,12.028 a 1.325,1.325 0 0 1 2.648,0 c 0,0.732 -0.595,1.322 -1.324,1.322 a 1.32,1.32 0 0 1 -1.324,-1.322 z"
     fill-rule="evenodd"
     clip-rule="evenodd"
     id="path78" />
  <path
     fill-rule="evenodd"
     clip-rule="evenodd"
     fill="#ffffff"
     d="m 41.247975,11.313 h 0.777 v 0.775 h -0.777 z"
     id="path80" />
  <path
     d="m 89.32498,17.991 c 0,0 1.984,1.431 3.424,-0.11 0.676,-0.722 1.771,1.327 1.771,1.327 M 45.055975,18.76 c -1.984,0.663 -2.423,-1.319 -2.863,0 l -0.776,0.89"
     fill="none"
     stroke="#000000"
     stroke-width="0.78"
     stroke-miterlimit="2.613"
     id="path82" />
  <path
     style="fill:#ffffff;fill-opacity:1;stroke:#ffffff;stroke-width:1.80461;stroke-linecap:butt;stroke-linejoin:miter;stroke-miterlimit:4;stroke-dasharray:none;stroke-opacity:1"
     d="M 67.566367,23.82592 67.35559,49.995029"
     id="path1934" />
  <g
     transform="matrix(0.65373835,0,0,0.65373835,56.876481,34.327365)"
     ns5:version="1.0.0"
     ns5:texconverter="pdflatex"
     ns5:pdfconverter="inkscape"
     ns5:text="$\\langle X \\mid R \\rangle$"
     ns5:preamble="/usr/share/inkscape/extensions/textext/default_packages.tex"
     ns5:scale="1.0000000283464388"
     ns5:alignment="middle center"
     ns5:jacobian_sqrt="0.352778"
     id="g1756">
    <defs
       id="id-a6334a7a-4429-4319-824b-e35e95d5da2c">
      <g
         id="g1914">
        <symbol
           id="symbol1888"
           overflow="visible">
          <path
             id="path1886"
             d=""
             style="stroke:none" />
        </symbol>
        <symbol
           id="symbol1892"
           overflow="visible">
          <path
             id="path1890"
             d="M 3.265625,-7.09375 C 3.3125,-7.203125 3.3125,-7.234375 3.3125,-7.28125 c 0,-0.109375 -0.078125,-0.203125 -0.1875,-0.203125 -0.09375,0 -0.171875,0.0625 -0.234375,0.234375 l -1.75,4.578125 C 1.125,-2.609375 1.09375,-2.546875 1.09375,-2.5 c 0,0.03125 0,0.0625 0.046875,0.171875 L 2.890625,2.25 C 2.9375,2.359375 2.984375,2.5 3.125,2.5 c 0.109375,0 0.1875,-0.09375 0.1875,-0.203125 0,-0.03125 0,-0.046875 -0.046875,-0.15625 L 1.5,-2.5 Z m 0,0"
             style="stroke:none" />
        </symbol>
        <symbol
           id="symbol1896"
           overflow="visible">
          <path
             id="path1894"
             d="m 1.578125,-7.125 c 0,-0.171875 0,-0.359375 -0.1875,-0.359375 -0.203125,0 -0.203125,0.1875 -0.203125,0.359375 v 9.265625 c 0,0.171875 0,0.359375 0.203125,0.359375 0.1875,0 0.1875,-0.1875 0.1875,-0.359375 z m 0,0"
             style="stroke:none" />
        </symbol>
        <symbol
           id="symbol1900"
           overflow="visible">
          <path
             id="path1898"
             d="M 2.71875,-2.328125 C 2.765625,-2.4375 2.765625,-2.46875 2.765625,-2.5 c 0,-0.015625 0,-0.046875 -0.046875,-0.15625 L 0.984375,-7.25 c -0.0625,-0.171875 -0.125,-0.234375 -0.234375,-0.234375 -0.109375,0 -0.203125,0.09375 -0.203125,0.203125 0,0.03125 0,0.046875 0.046875,0.15625 L 2.359375,-2.5 0.59375,2.109375 C 0.546875,2.21875 0.546875,2.25 0.546875,2.296875 0.546875,2.40625 0.640625,2.5 0.75,2.5 0.875,2.5 0.921875,2.390625 0.953125,2.296875 Z m 0,0"
             style="stroke:none" />
        </symbol>
        <symbol
           id="symbol1904"
           overflow="visible">
          <path
             id="path1902"
             d=""
             style="stroke:none" />
        </symbol>
        <symbol
           id="symbol1908"
           overflow="visible">
          <path
             id="path1906"
             d="M 4.828125,-4.09375 4,-6.078125 c -0.03125,-0.078125 -0.046875,-0.125 -0.046875,-0.125 0,-0.0625 0.15625,-0.25 0.578125,-0.296875 0.109375,-0.015625 0.203125,-0.015625 0.203125,-0.1875 0,-0.125 -0.125,-0.125 -0.15625,-0.125 -0.40625,0 -0.828125,0.03125 -1.25,0.03125 -0.25,0 -0.859375,-0.03125 -1.109375,-0.03125 -0.0625,0 -0.1875,0 -0.1875,0.203125 C 2.03125,-6.5 2.140625,-6.5 2.265625,-6.5 c 0.59375,0 0.65625,0.09375 0.75,0.3125 l 1.171875,2.78125 -2.109375,2.265625 -0.125,0.109375 C 1.46875,-0.5 1,-0.34375 0.484375,-0.3125 c -0.125,0.015625 -0.21875,0.015625 -0.21875,0.203125 0,0.015625 0,0.109375 0.140625,0.109375 0.296875,0 0.625,-0.03125 0.921875,-0.03125 C 1.703125,-0.03125 2.09375,0 2.453125,0 2.515625,0 2.625,0 2.625,-0.203125 2.625,-0.296875 2.53125,-0.3125 2.515625,-0.3125 c -0.09375,0 -0.40625,-0.03125 -0.40625,-0.3125 0,-0.15625 0.15625,-0.3125 0.265625,-0.4375 L 3.40625,-2.140625 4.296875,-3.125 l 1,2.390625 c 0.046875,0.109375 0.0625,0.109375 0.0625,0.140625 0,0.078125 -0.203125,0.25 -0.578125,0.28125 C 4.671875,-0.296875 4.578125,-0.296875 4.578125,-0.125 4.578125,0 4.6875,0 4.71875,0 5,0 5.703125,-0.03125 5.984375,-0.03125 6.234375,-0.03125 6.84375,0 7.09375,0 c 0.0625,0 0.1875,0 0.1875,-0.1875 0,-0.125 -0.109375,-0.125 -0.1875,-0.125 -0.65625,0 -0.6875,-0.03125 -0.859375,-0.4375 C 5.859375,-1.671875 5.1875,-3.234375 4.953125,-3.828125 5.625,-4.53125 6.671875,-5.71875 7,-5.984375 7.28125,-6.234375 7.671875,-6.46875 8.265625,-6.5 c 0.125,-0.015625 0.21875,-0.015625 0.21875,-0.203125 0,0 0,-0.109375 -0.125,-0.109375 -0.296875,0 -0.640625,0.03125 -0.9375,0.03125 -0.375,0 -0.75,-0.03125 -1.109375,-0.03125 -0.0625,0 -0.1875,0 -0.1875,0.203125 0,0.0625 0.046875,0.09375 0.109375,0.109375 0.09375,0.015625 0.40625,0.03125 0.40625,0.3125 0,0.140625 -0.109375,0.265625 -0.1875,0.359375 z m 0,0"
             style="stroke:none" />
        </symbol>
        <symbol
           id="symbol1912"
           overflow="visible">
          <path
             id="path1910"
             d="m 3.734375,-6.125 c 0.0625,-0.234375 0.09375,-0.328125 0.28125,-0.359375 C 4.109375,-6.5 4.421875,-6.5 4.625,-6.5 c 0.703125,0 1.8125,0 1.8125,0.984375 0,0.34375 -0.15625,1.03125 -0.546875,1.421875 -0.265625,0.25 -0.78125,0.578125 -1.6875,0.578125 H 3.09375 Z m 1.4375,2.734375 c 1.015625,-0.21875 2.1875,-0.921875 2.1875,-1.921875 0,-0.859375 -0.890625,-1.5 -2.203125,-1.5 H 2.328125 c -0.203125,0 -0.296875,0 -0.296875,0.203125 C 2.03125,-6.5 2.125,-6.5 2.3125,-6.5 c 0.015625,0 0.203125,0 0.375,0.015625 0.1875,0.03125 0.265625,0.03125 0.265625,0.171875 0,0.03125 0,0.0625 -0.03125,0.1875 l -1.34375,5.34375 C 1.484375,-0.390625 1.46875,-0.3125 0.671875,-0.3125 0.5,-0.3125 0.40625,-0.3125 0.40625,-0.109375 0.40625,0 0.53125,0 0.546875,0 c 0.28125,0 0.984375,-0.03125 1.25,-0.03125 0.28125,0 1,0.03125 1.28125,0.03125 0.078125,0 0.1875,0 0.1875,-0.203125 0,-0.109375 -0.078125,-0.109375 -0.28125,-0.109375 -0.359375,0 -0.640625,0 -0.640625,-0.171875 0,-0.0625 0.015625,-0.109375 0.03125,-0.171875 l 0.65625,-2.640625 h 1.1875 c 0.90625,0 1.078125,0.5625 1.078125,0.90625 0,0.140625 -0.078125,0.453125 -0.140625,0.6875 C 5.09375,-1.421875 5,-1.0625 5,-0.859375 5,0.21875 6.203125,0.21875 6.328125,0.21875 c 0.84375,0 1.203125,-1 1.203125,-1.140625 0,-0.125 -0.109375,-0.125 -0.125,-0.125 -0.09375,0 -0.109375,0.0625 -0.125,0.140625 C 7.03125,-0.171875 6.59375,0 6.375,0 6.046875,0 5.96875,-0.21875 5.96875,-0.609375 c 0,-0.3125 0.0625,-0.8125 0.109375,-1.140625 0.015625,-0.140625 0.03125,-0.328125 0.03125,-0.46875 0,-0.765625 -0.671875,-1.078125 -0.9375,-1.171875 z m 0,0"
             style="stroke:none" />
        </symbol>
      </g>
    </defs>
    <g
       transform="translate(-149.806,-127.281)"
       id="id-bbac9576-0709-4ae8-ac17-7165ec115dc2">
      <g
         id="id-d9c3260f-6488-4e33-bb05-caf89334cde0"
         style="fill:#000000;fill-opacity:1">
        <g
           transform="translate(148.712,134.765)"
           id="g1736">
          <path
             id="id-5348cd91-3e5e-45aa-919a-afc72c09c224"
             d="M 3.265625,-7.09375 C 3.3125,-7.203125 3.3125,-7.234375 3.3125,-7.28125 c 0,-0.109375 -0.078125,-0.203125 -0.1875,-0.203125 -0.09375,0 -0.171875,0.0625 -0.234375,0.234375 l -1.75,4.578125 C 1.125,-2.609375 1.09375,-2.546875 1.09375,-2.5 c 0,0.03125 0,0.0625 0.046875,0.171875 L 2.890625,2.25 C 2.9375,2.359375 2.984375,2.5 3.125,2.5 c 0.109375,0 0.1875,-0.09375 0.1875,-0.203125 0,-0.03125 0,-0.046875 -0.046875,-0.15625 L 1.5,-2.5 Z m 0,0"
             style="stroke:none" />
        </g>
      </g>
      <g
         id="id-4ed47dbf-d5c4-4b93-ba24-b9388c184c95"
         style="fill:#000000;fill-opacity:1">
        <g
           transform="translate(152.587,134.765)"
           id="g1740">
          <path
             id="id-99935dcc-b9f6-45ec-9db7-defd10a878a3"
             d="M 4.828125,-4.09375 4,-6.078125 c -0.03125,-0.078125 -0.046875,-0.125 -0.046875,-0.125 0,-0.0625 0.15625,-0.25 0.578125,-0.296875 0.109375,-0.015625 0.203125,-0.015625 0.203125,-0.1875 0,-0.125 -0.125,-0.125 -0.15625,-0.125 -0.40625,0 -0.828125,0.03125 -1.25,0.03125 -0.25,0 -0.859375,-0.03125 -1.109375,-0.03125 -0.0625,0 -0.1875,0 -0.1875,0.203125 C 2.03125,-6.5 2.140625,-6.5 2.265625,-6.5 c 0.59375,0 0.65625,0.09375 0.75,0.3125 l 1.171875,2.78125 -2.109375,2.265625 -0.125,0.109375 C 1.46875,-0.5 1,-0.34375 0.484375,-0.3125 c -0.125,0.015625 -0.21875,0.015625 -0.21875,0.203125 0,0.015625 0,0.109375 0.140625,0.109375 0.296875,0 0.625,-0.03125 0.921875,-0.03125 C 1.703125,-0.03125 2.09375,0 2.453125,0 2.515625,0 2.625,0 2.625,-0.203125 2.625,-0.296875 2.53125,-0.3125 2.515625,-0.3125 c -0.09375,0 -0.40625,-0.03125 -0.40625,-0.3125 0,-0.15625 0.15625,-0.3125 0.265625,-0.4375 L 3.40625,-2.140625 4.296875,-3.125 l 1,2.390625 c 0.046875,0.109375 0.0625,0.109375 0.0625,0.140625 0,0.078125 -0.203125,0.25 -0.578125,0.28125 C 4.671875,-0.296875 4.578125,-0.296875 4.578125,-0.125 4.578125,0 4.6875,0 4.71875,0 5,0 5.703125,-0.03125 5.984375,-0.03125 6.234375,-0.03125 6.84375,0 7.09375,0 c 0.0625,0 0.1875,0 0.1875,-0.1875 0,-0.125 -0.109375,-0.125 -0.1875,-0.125 -0.65625,0 -0.6875,-0.03125 -0.859375,-0.4375 C 5.859375,-1.671875 5.1875,-3.234375 4.953125,-3.828125 5.625,-4.53125 6.671875,-5.71875 7,-5.984375 7.28125,-6.234375 7.671875,-6.46875 8.265625,-6.5 c 0.125,-0.015625 0.21875,-0.015625 0.21875,-0.203125 0,0 0,-0.109375 -0.125,-0.109375 -0.296875,0 -0.640625,0.03125 -0.9375,0.03125 -0.375,0 -0.75,-0.03125 -1.109375,-0.03125 -0.0625,0 -0.1875,0 -0.1875,0.203125 0,0.0625 0.046875,0.09375 0.109375,0.109375 0.09375,0.015625 0.40625,0.03125 0.40625,0.3125 0,0.140625 -0.109375,0.265625 -0.1875,0.359375 z m 0,0"
             style="stroke:none" />
        </g>
      </g>
      <g
         id="id-dda8697b-b911-4b24-b4b3-1c2fdbcea41e"
         style="fill:#000000;fill-opacity:1">
        <g
           transform="translate(164.39,134.765)"
           id="g1744">
          <path
             id="id-d86f304b-ee4b-408d-8009-ddb85b102ee8"
             d="m 1.578125,-7.125 c 0,-0.171875 0,-0.359375 -0.1875,-0.359375 -0.203125,0 -0.203125,0.1875 -0.203125,0.359375 v 9.265625 c 0,0.171875 0,0.359375 0.203125,0.359375 0.1875,0 0.1875,-0.1875 0.1875,-0.359375 z m 0,0"
             style="stroke:none" />
        </g>
      </g>
      <g
         id="id-3ee2d0b2-82e5-4ca6-bca3-0f9d6c4a10d0"
         style="fill:#000000;fill-opacity:1">
        <g
           transform="translate(169.924,134.765)"
           id="g1748">
          <path
             id="id-9e7aeb0d-ff59-4ffd-b90b-f5f6059b90f7"
             d="m 3.734375,-6.125 c 0.0625,-0.234375 0.09375,-0.328125 0.28125,-0.359375 C 4.109375,-6.5 4.421875,-6.5 4.625,-6.5 c 0.703125,0 1.8125,0 1.8125,0.984375 0,0.34375 -0.15625,1.03125 -0.546875,1.421875 -0.265625,0.25 -0.78125,0.578125 -1.6875,0.578125 H 3.09375 Z m 1.4375,2.734375 c 1.015625,-0.21875 2.1875,-0.921875 2.1875,-1.921875 0,-0.859375 -0.890625,-1.5 -2.203125,-1.5 H 2.328125 c -0.203125,0 -0.296875,0 -0.296875,0.203125 C 2.03125,-6.5 2.125,-6.5 2.3125,-6.5 c 0.015625,0 0.203125,0 0.375,0.015625 0.1875,0.03125 0.265625,0.03125 0.265625,0.171875 0,0.03125 0,0.0625 -0.03125,0.1875 l -1.34375,5.34375 C 1.484375,-0.390625 1.46875,-0.3125 0.671875,-0.3125 0.5,-0.3125 0.40625,-0.3125 0.40625,-0.109375 0.40625,0 0.53125,0 0.546875,0 c 0.28125,0 0.984375,-0.03125 1.25,-0.03125 0.28125,0 1,0.03125 1.28125,0.03125 0.078125,0 0.1875,0 0.1875,-0.203125 0,-0.109375 -0.078125,-0.109375 -0.28125,-0.109375 -0.359375,0 -0.640625,0 -0.640625,-0.171875 0,-0.0625 0.015625,-0.109375 0.03125,-0.171875 l 0.65625,-2.640625 h 1.1875 c 0.90625,0 1.078125,0.5625 1.078125,0.90625 0,0.140625 -0.078125,0.453125 -0.140625,0.6875 C 5.09375,-1.421875 5,-1.0625 5,-0.859375 5,0.21875 6.203125,0.21875 6.328125,0.21875 c 0.84375,0 1.203125,-1 1.203125,-1.140625 0,-0.125 -0.109375,-0.125 -0.125,-0.125 -0.09375,0 -0.109375,0.0625 -0.125,0.140625 C 7.03125,-0.171875 6.59375,0 6.375,0 6.046875,0 5.96875,-0.21875 5.96875,-0.609375 c 0,-0.3125 0.0625,-0.8125 0.109375,-1.140625 0.015625,-0.140625 0.03125,-0.328125 0.03125,-0.46875 0,-0.765625 -0.671875,-1.078125 -0.9375,-1.171875 z m 0,0"
             style="stroke:none" />
        </g>
      </g>
      <g
         id="id-69f95e01-effe-438a-a0cd-43be50155e85"
         style="fill:#000000;fill-opacity:1">
        <g
           transform="translate(177.566,134.765)"
           id="g1752">
          <path
             id="id-7153c290-dcfe-4a61-808c-d2f9ec37f9df"
             d="M 2.71875,-2.328125 C 2.765625,-2.4375 2.765625,-2.46875 2.765625,-2.5 c 0,-0.015625 0,-0.046875 -0.046875,-0.15625 L 0.984375,-7.25 c -0.0625,-0.171875 -0.125,-0.234375 -0.234375,-0.234375 -0.109375,0 -0.203125,0.09375 -0.203125,0.203125 0,0.03125 0,0.046875 0.046875,0.15625 L 2.359375,-2.5 0.59375,2.109375 C 0.546875,2.21875 0.546875,2.25 0.546875,2.296875 0.546875,2.40625 0.640625,2.5 0.75,2.5 0.875,2.5 0.921875,2.390625 0.953125,2.296875 Z m 0,0"
             style="stroke:none" />
        </g>
      </g>
    </g>
  </g>
  <path
     id="path960"
     d="m 64.754311,97.30848 c -8.23631,-2.56233 -20.518979,1.29323 -24.04828,9.33477 -3.758912,8.5647 -3.254345,14.94964 -0.849981,23.72526 6.081798,22.19779 41.77095,24.91582 56.21526,10.0968 5.29971,-5.43719 3.72062,-24.49672 0.4543,-30.55416 C 93.73433,104.73467 86.23001,97.85069 80.30291,96.89816 76.00802,96.20793 65.611057,97.6692 63.083679,96.60508"
     style="fill:none;stroke:#000000;stroke-width:1.15654;stroke-linecap:butt;stroke-linejoin:miter;stroke-miterlimit:4;stroke-dasharray:none;stroke-opacity:1" />
  <path
     id="path964"
     d="m 63.464712,96.94213 c 0.70561,3.8525 -1.534176,6.80425 -2.828348,10.11144 -1.077267,2.75288 -1.941762,5.66735 -3.00421,8.38224 -2.213787,5.65689 -15.75615,6.44108 -18.728645,5.77377"
     style="fill:none;stroke:#000000;stroke-width:1.16425;stroke-linecap:butt;stroke-linejoin:miter;stroke-miterlimit:4;stroke-dasharray:none;stroke-opacity:1" />
  <path
     id="path966"
     d="m 70.90927,117.57534 c -3.983416,-3.23664 -8.418786,3.18764 -8.265229,7.18058 0.388111,10.09182 15.449819,15.17379 21.454429,4.08854 4.57681,-8.44936 -10.27208,-15.74705 -16.12013,-12.01649"
     style="fill:none;stroke:#000000;stroke-width:1.15654;stroke-linecap:butt;stroke-linejoin:miter;stroke-miterlimit:4;stroke-dasharray:none;stroke-opacity:1" />
  <path
     id="path968"
     d="m 78.30987,116.57883 c 1.677,-5.73119 7.44869,-11.05218 10.56602,-14.65425"
     style="fill:none;stroke:#000000;stroke-width:1.15654;stroke-linecap:butt;stroke-linejoin:miter;stroke-miterlimit:4;stroke-dasharray:none;stroke-opacity:1" />
  <path
     id="path970"
     d="m 80.49341,133.82691 c 1.17456,4.09819 1.66225,11.45775 0.82067,14.36118"
     style="fill:none;stroke:#000000;stroke-width:1.15654;stroke-linecap:butt;stroke-linejoin:miter;stroke-miterlimit:4;stroke-dasharray:none;stroke-opacity:1" />
  <path
     id="path972"
     d="m 85.78375,124.53612 c 1.41292,-2.05271 12.42715,-3.1815 12.42715,-0.13189"
     style="fill:none;stroke:#000000;stroke-width:1.15654;stroke-linecap:butt;stroke-linejoin:miter;stroke-miterlimit:4;stroke-dasharray:none;stroke-opacity:1" />
  <path
     id="path974"
     d="m 55.785659,130.04612 c -9.71697,-2.43327 -9.299811,11.18058 0.263791,11.32774 10.489273,0.1614 1.725027,-17.00994 -0.263791,-11.32774 z"
     style="fill:none;stroke:#000000;stroke-width:1.15654;stroke-linecap:butt;stroke-linejoin:miter;stroke-miterlimit:4;stroke-dasharray:none;stroke-opacity:1" />
  <path
     id="path976"
     d="m 56.591672,129.76769 c 1.56501,-2.39487 -3.945869,-11.38481 -3.619703,-9.2322"
     style="fill:none;stroke:#000000;stroke-width:1.15654;stroke-linecap:butt;stroke-linejoin:miter;stroke-miterlimit:4;stroke-dasharray:none;stroke-opacity:1" />
  <path
     id="path978"
     d="m 69.75155,134.10534 c -3.322035,3.34454 -6.442308,10.38334 -7.283364,13.99484"
     style="fill:none;stroke:#000000;stroke-width:1.15654;stroke-linecap:butt;stroke-linejoin:miter;stroke-miterlimit:4;stroke-dasharray:none;stroke-opacity:1" />
  <path
     id="path980"
     d="m 84.79299,122.35925 c -0.79708,-1.61909 -3.09008,-3.93054 -4.78793,-4.82646 -0.58388,-0.30809 -1.06159,-0.66659 -1.06159,-0.79664 0,-0.43922 1.7726,-3.90585 2.68177,-5.24467 1.11148,-1.63671 2.81403,-3.67738 5.57776,-6.68543 l 2.11314,-2.29995 1.02983,0.94927 c 2.8534,2.63018 5.11864,5.60917 6.10259,8.02546 0.99655,2.44721 2.2104,8.49615 2.2225,11.07531 0.004,0.82661 -0.0183,0.85531 -0.3965,0.51305 -0.98978,-0.89573 -2.08606,-1.14229 -4.98077,-1.12021 -2.99269,0.0228 -5.64027,0.54408 -7.0809,1.39407 l -0.725,0.42776 z"
     style="fill:#00ff00;stroke:none;stroke-width:0.0556679;stroke-miterlimit:4;stroke-dasharray:none" />
  <path
     id="path982"
     d="m 54.054618,140.41779 c -2.150178,-0.65643 -3.834665,-2.27987 -4.406456,-4.24678 -0.658485,-2.26509 0.04932,-4.33501 1.785167,-5.22057 0.793052,-0.40459 1.194286,-0.45434 2.886244,-0.35787 1.699876,0.0969 1.981184,0.0615 2.083954,-0.26225 0.07354,-0.23172 0.349128,-0.37034 0.723429,-0.3639 1.997122,0.0344 4.063474,6.55052 2.811925,8.86725 -0.624391,1.15579 -2.021934,1.79865 -3.857703,1.77452 -0.806299,-0.0106 -1.718251,-0.0963 -2.02656,-0.1904 z"
     style="fill:#ff00ff;stroke:none;stroke-width:0.16189;stroke-miterlimit:4;stroke-dasharray:none" />
  <path
     id="path984"
     d="m 71.24984,134.01248 c -1.83654,-0.50485 -3.55994,-1.51199 -4.987275,-2.91453 -2.339811,-2.29916 -3.364448,-5.35088 -2.685908,-7.9995 0.700537,-2.73446 2.481887,-5.0239 4.342769,-5.58143 0.794363,-0.23799 1.015069,-0.21557 1.825694,0.18549 l 0.9221,0.45621 0.36464,-0.55651 c 0.2847,-0.43451 0.30292,-0.59467 0.0831,-0.7305 -0.52954,-0.32728 0.70838,-0.45099 2.28097,-0.22795 3.22499,0.45737 6.38116,1.96789 8.46408,4.05081 3.1513,3.1513 3.14215,6.58698 -0.027,10.1427 -2.10007,2.35622 -4.71243,3.52775 -7.78642,3.49188 -0.94477,-0.011 -2.20332,-0.15353 -2.79678,-0.31667 z"
     style="fill:#ffff00;stroke:none;stroke-width:0.16189;stroke-miterlimit:4;stroke-dasharray:none" />
  <path
     id="path986"
     d="M 59.435988,147.44155 C 49.75757,144.5905 43.267327,138.8321 40.76255,130.87373 c -0.592095,-1.88125 -1.593304,-6.2394 -1.828662,-7.95995 l -0.138024,-1.009 2.723848,0.0697 c 2.953008,0.0755 6.476595,-0.33967 8.993948,-1.05981 0.827239,-0.23665 1.693261,-0.38079 1.924491,-0.32033 0.771494,0.20176 3.250891,4.94358 3.544297,6.77844 0.230683,1.44264 -0.224646,1.80598 -2.234728,1.78325 -2.500231,-0.0283 -4.075564,0.84034 -5.148698,2.83885 -0.379534,0.70682 -0.480561,1.27707 -0.47668,2.69069 0.0044,1.60464 0.08474,1.9424 0.761812,3.20309 1.445902,2.69222 3.52954,3.90066 6.964251,4.03905 1.997061,0.0804 2.206687,0.0455 3.355659,-0.55884 0.997666,-0.5248 1.341612,-0.86686 1.849848,-1.83973 1.22471,-2.34437 0.688278,-6.17445 -1.274526,-9.10002 -0.497179,-0.74104 -1.213383,-1.54846 -1.59157,-1.79425 -0.560196,-0.36409 -0.731957,-0.68023 -0.92691,-1.70608 -0.269126,-1.41612 -1.688211,-4.59044 -2.727405,-6.10086 l -0.687445,-0.99917 1.313139,-0.81051 c 1.509912,-0.93198 2.557016,-2.03888 3.057272,-3.23189 0.191993,-0.45786 0.91125,-2.4469 1.598348,-4.42007 0.68709,-1.97317 1.851059,-4.93121 2.586593,-6.57344 0.863046,-1.92695 1.460874,-3.63662 1.685697,-4.820814 0.191607,-1.009224 0.459523,-1.95561 0.59537,-2.103076 0.180034,-0.195439 2.344306,-0.286621 7.982715,-0.336336 l 7.73573,-0.06821 1.65797,0.605401 c 1.57764,0.576063 4.46003,2.176865 5.59776,3.108865 l 0.52903,0.43335 -1.14722,1.28955 c -5.55432,6.24339 -6.9831,8.11202 -8.34907,10.91931 -0.47687,0.98007 -0.86705,1.9134 -0.86705,2.07407 0,0.37844 -0.39853,0.36897 -1.54855,-0.0368 -0.51273,-0.1809 -1.76145,-0.44201 -2.77493,-0.58025 -1.50109,-0.20473 -2.11284,-0.19023 -3.30013,0.0782 -1.971974,0.44592 -3.687949,1.13168 -4.630241,1.8504 -1.586736,1.21026 -3.034203,3.73594 -3.459461,6.03641 -0.644584,3.48685 1.395407,7.92994 4.634363,10.09362 0.728864,0.4869 1.409247,0.95256 1.511955,1.03479 0.102708,0.0822 -0.175154,0.62362 -0.617467,1.20309 -1.904977,2.49565 -4.279245,7.27539 -5.32133,10.71256 -0.289419,0.95461 -0.627112,1.73122 -0.75043,1.72581 -0.123325,-0.005 -1.081886,-0.26249 -2.130131,-0.57127 z"
     style="fill:#ff0000;stroke:none;stroke-width:0.16189;stroke-miterlimit:4;stroke-dasharray:none" />
  <path
     id="path988"
     d="m 38.673494,120.104 c -0.187164,-0.74572 0.07796,-4.20912 0.490059,-6.40184 0.409843,-2.1807 1.433107,-5.20286 2.476839,-7.31521 1.851516,-3.74718 6.204679,-6.895788 11.543331,-8.349199 3.01832,-0.821719 7.331259,-1.070135 9.247254,-0.532623 0.695934,0.195238 0.415073,2.663172 -0.569517,5.004282 -0.440849,1.04825 -1.164169,2.76356 -1.607362,3.81181 -0.4432,1.04824 -1.408329,3.61116 -2.144734,5.69537 -1.503667,4.25576 -1.990707,4.95942 -4.254194,6.14636 -2.94522,1.54442 -6.537798,2.31097 -11.398101,2.43204 l -3.637601,0.0906 z"
     style="fill:#00ffff;stroke:none;stroke-width:0.16189;stroke-miterlimit:4;stroke-dasharray:none" />
  <path
     id="path990"
     d="m 65.043214,148.62926 c -1.246153,-0.19736 -1.698081,-0.3616 -1.749839,-0.63594 -0.09586,-0.50806 1.366524,-4.35758 2.585235,-6.8053 1.005207,-2.0189 3.149071,-5.43526 3.69521,-5.88851 0.20856,-0.1731 0.63603,-0.14779 1.52251,0.0901 1.7788,0.47741 5.30955,0.30714 7.06235,-0.34058 0.73994,-0.27344 1.44433,-0.51754 1.56531,-0.54246 0.12098,-0.0249 0.40765,0.81236 0.63704,1.8606 0.32244,1.47342 0.42517,2.95878 0.45271,6.54583 0.0219,2.84764 -0.0511,4.72725 -0.18895,4.86601 -0.84895,0.85465 -11.785517,1.45142 -15.581576,0.85021 z"
     style="fill:#0000ff;stroke:none;stroke-width:0.16189;stroke-miterlimit:4;stroke-dasharray:none" />
  <path
     id="path992"
     d="m 82.238,142.71271 c -0.11428,-4.12287 -0.454,-6.99481 -1.0556,-8.92407 -0.0385,-0.12333 0.54782,-0.85764 1.30284,-1.6318 1.7371,-1.78116 2.94633,-4.13098 3.12183,-6.06642 0.0684,-0.7543 0.20802,-1.31976 0.31027,-1.25656 0.10224,0.0632 0.59082,-0.0917 1.08571,-0.34415 2.80572,-1.43137 8.88253,-1.70628 10.20726,-0.46176 0.26661,0.25047 0.75572,0.4554 1.08691,0.4554 0.59416,0 0.60214,0.0201 0.59985,1.5135 -0.007,4.55502 -0.80411,9.43131 -1.93777,11.85376 -1.38118,2.95132 -6.00438,6.38078 -11.56766,8.58081 -0.89505,0.35395 -1.94169,0.7114 -2.32586,0.79433 l -0.6985,0.15078 z"
     style="fill:#00ffff;stroke:none;stroke-width:0.16189;stroke-miterlimit:4;stroke-dasharray:none" />
</svg>
